<?xml version="1.0" encoding="UTF-8" standalone="no"?>
<!-- Created with Inkscape (http://www.inkscape.org/) -->

<svg
   width="2332"
   height="1535"
   id="svg2"
   version="1.1"
   xmlns="http://www.w3.org/2000/svg"
   xmlns:svg="http://www.w3.org/2000/svg"
   xmlns:rdf="http://www.w3.org/1999/02/22-rdf-syntax-ns#"
   xmlns:cc="http://creativecommons.org/ns#"
   xmlns:dc="http://purl.org/dc/elements/1.1/">
  <defs
     id="defs4" />
  <metadata
     id="metadata7">
    <rdf:RDF>
      <cc:Work
         rdf:about="">
        <dc:format>image/svg+xml</dc:format>
        <dc:type
           rdf:resource="http://purl.org/dc/dcmitype/StillImage" />
      </cc:Work>
    </rdf:RDF>
  </metadata>
  <g
     id="layer1"
     transform="translate(935.46766,-1484.3185)">
    <path
       style="fill:#000000"
       d=""
       id="path3007" />
    <path
       id="path3038"
       d="M -935.46766,1664.3185 H 1396.5324 v 411.599 411.599 h -1166.00006 -1166 z"
       style="fill:#ffffff" />
    <text
       xml:space="preserve"
       style="font-style:normal;font-variant:normal;font-weight:normal;font-stretch:normal;line-height:0%;font-family:FreeSans;-inkscape-font-specification:FreeSans;text-align:start;letter-spacing:32.05px;word-spacing:0px;writing-mode:lr-tb;text-anchor:start;fill:#000000;fill-opacity:1;stroke:none"
       x="-235.55005"
       y="2500.2363"
       id="text2997-7"><tspan
         id="tspan3003-7"
         x="-235.55005"
         y="2500.2363"
         style="font-size:64.436px;line-height:1.25"> </tspan></text>
    <g
       id="g3092"
       transform="translate(-1.6324894,392)">
      <g
         id="g3080">
        <path
           id="path3034"
           d="m -933.83517,2627.3185 c 3.99091,-421.9341 0.47624,-1129.1364 0,-1128.5308 760.61569,5.9176 2331.99997,28.6699 2331.99997,28.6699 -0.3883,-1.5615 6.1141,1090.1791 0,1099.8609 z M 1256.5324,2103.7651 c 67.7528,-1.9049 83.3453,-5.2271 90.4472,-19.271 1.1649,-2.3036 1.6602,-5.6814 1.613,-11 -0.037,-4.2216 -0.1788,-21.1756 -0.3142,-37.6756 -0.2105,-25.666 -0.484,-30.4337 -1.8936,-33.0024 -2.1841,-3.9799 -4.4757,-5.8475 -9.6226,-7.8425 -5.2378,-2.0301 -8.0832,-2.0717 -14.6419,-0.214 -19.8859,5.6327 -17.3454,5.4081 -57.0879,5.0465 -20.35,-0.1852 -38.35,-0.7544 -40,-1.2648 -1.65,-0.5105 -9.3,-1.0194 -17,-1.131 -22.9358,-0.3323 -38.8746,-5.0142 -44.2219,-12.9897 -2.8029,-4.1807 -2.8598,-6.6358 -0.2525,-10.9123 3.8657,-6.3404 5.5244,-6.581 43.4744,-6.3053 60.4301,0.439 113.67,0.1137 127.5,-0.7792 16.5121,-1.066 21.3298,-2.8174 25.8589,-9.4002 6.7567,-9.8205 9.1459,-23.4999 6.7483,-38.6378 -0.8795,-5.5527 -1.8801,-14.7019 -2.2237,-20.3316 -0.4249,-6.9632 -1.9803,-15.6735 -4.8649,-27.2438 -4.0605,-16.2872 -4.5534,-17.5357 -11.6294,-29.4549 -6.6709,-11.2369 -8.8046,-13.8386 -21.9496,-26.7648 -12.8891,-12.6745 -16.1031,-15.244 -28,-22.3857 -21.1189,-12.6776 -24.7635,-14.2481 -42.48,-18.3056 -16.407,-3.7575 -20.0847,-4.3915 -40.9596,-7.0613 -21.4647,-2.7453 -42.5442,-2.4016 -63.5,1.0351 -12.6096,2.068 -19.6418,4.3629 -33.5549,10.9503 -6.3834,3.0222 -12.0127,5.495 -12.5097,5.495 -3.5239,0 -16.0139,7.9628 -38.186,24.3447 -1.5128,1.1177 -4.8739,4.7599 -7.4691,8.0938 -2.5952,3.3338 -7.0343,8.5365 -9.8646,11.5615 -6.7375,7.2009 -8.88,10.7949 -16.2496,27.2584 -6.6667,14.8935 -8.4675,20.6821 -13.2287,42.5242 -2.6271,12.0517 -3.1255,16.5033 -3.1908,28.5 -0.043,7.8196 0.2107,18.0424 0.5629,22.7174 0.9004,11.9532 5.7889,30.5842 10.6186,40.4701 2.2396,4.584 4.0719,8.6918 4.0719,9.1285 0,0.4366 1.0631,2.3931 2.3624,4.3476 1.2993,1.9546 4.4936,7.1538 7.0985,11.5538 16.1486,27.2773 35.2123,46.0963 60.0391,59.2683 14.9249,7.9185 38.4514,17.0913 48.1306,18.7656 2.1282,0.3682 9.0444,1.9619 15.3694,3.5416 22.4887,5.6166 49.2082,9.0789 64,8.2929 3.575,-0.19 15.725,-0.6048 27,-0.9218 z m -91.5,-216.2613 c -3.0972,-0.6486 -7.3798,-4.0522 -8.9715,-7.1301 -2.7635,-5.3442 1.6265,-13.2245 8.9715,-16.1041 1.65,-0.6469 12.675,-1.6387 24.5,-2.2039 20.9395,-1.0009 21.7186,-0.968 29.8847,1.2585 6.898,1.8807 9.1587,3.0277 12.75,6.4688 2.4009,2.3005 4.3653,4.9055 4.3653,5.789 0,3.4428 -2.0811,6.759 -5.7097,9.0985 -3.7645,2.4272 -3.9946,2.4465 -33.7903,2.8429 -16.5,0.2196 -30.9,0.2107 -32,-0.02 z m -991.90266,208.2996 c 18.2731,-4.6064 24.538,-7.8414 34.1972,-17.6583 6.3328,-6.4362 8.2527,-7.8266 10.8071,-7.8266 2.9542,0 3.3147,0.4615 7.3692,9.4356 4.8127,10.6522 6.6334,12.7294 13.0323,14.868 5.1271,1.7136 7.9324,1.7746 62.6235,1.3613 l 39.1267,-0.2956 5.8733,-2.9347 c 11.7001,-5.846 14.2155,-14.9393 10.4949,-37.94 -1.5313,-9.4666 -1.9858,-15.8609 -1.6703,-23.5 0.2385,-5.772 0.6968,-25.5696 1.0186,-43.9946 0.3218,-18.425 1.052,-38.2083 1.6227,-43.9628 1.2722,-12.8292 1.2408,-30.3777 -0.088,-48.9687 -1.5736,-22.0205 -0.4799,-62.5405 2.1166,-78.4162 3.1403,-19.2005 3.0159,-25.8534 -0.607,-32.4758 -4.3463,-7.9445 -11.1259,-12.7587 -21.354,-15.1635 -4.2871,-1.008 -8.2077,-1.0066 -19.8926,0.01 -8.8606,0.7687 -20.4627,1.0254 -29.6606,0.6563 -8.309,-0.3335 -19.1573,-0.1678 -24.1073,0.368 -6.2217,0.6736 -12.8588,0.6202 -21.5,-0.1729 -14.9367,-1.371 -19.1343,-0.5497 -25.2095,4.9323 -7.1837,6.4821 -7.8858,11.0188 -5.6792,36.6961 0.9478,11.0283 0.8437,15.7301 -0.6862,31 -1.2107,12.0838 -1.8649,27.6962 -1.9904,47.5 -0.2734,43.1532 -0.5213,46.5062 -3.8743,52.3955 -5.1238,8.9998 -11.8224,12.6882 -19.358,10.659 -6.8801,-1.8526 -10.7035,-7.5101 -14.2696,-21.1145 -1.8084,-6.8986 -2.2563,-11.6359 -2.453,-25.94 -0.1323,-9.625 0.213,-20.875 0.7673,-25 0.5543,-4.125 1.1222,-17.175 1.2621,-29 0.1398,-11.825 0.5913,-28.5609 1.0032,-37.191 0.6308,-13.2143 0.4766,-16.8479 -0.9768,-23.0197 -2.7537,-11.6931 -9.3651,-19.2126 -19.0626,-21.6808 -4.3231,-1.1003 -56.529701,0.1113 -59.685001,1.3852 -0.9416,0.3801 -6.5666,0.1628 -12.50001,-0.4831 -15.849077,-1.7251 -32.338857,-1.4865 -38.490937,0.5569 -11.01297,3.6579 -16.13461,11.9763 -17.22502,27.9763 -0.33571,4.9259 -0.80631,43.8312 -1.04578,86.4562 -0.38082,67.785 -0.19539,81.6368 1.47924,110.5 1.05305,18.15 2.35434,35.25 2.89174,38 1.66829,8.5369 9.07782,22.992 15.54761,30.3315 15.07413,17.1004 30.350047,25.9188 54.055157,31.2046 21.789201,4.8587 22.269201,4.9085 42.597401,4.4223 18.2543,-0.4367 20.5503,-0.709 33.5,-3.9734 z m -374.0974,-0.9107 c 16.71193,-2.9771 20.19907,-3.9426 28.95696,-8.0175 5.47633,-2.548 12.22633,-6.3463 15,-8.4405 8.21587,-6.2033 9.84901,-7.1162 12.73036,-7.1162 3.35102,0 4.47528,1.8953 5.38435,9.077 1.16007,9.1647 2.56831,11.4766 8.11225,13.318 4.20539,1.3968 6.60481,1.4759 17.34823,0.572 6.85731,-0.577 28.217842,-0.9607 47.467842,-0.8526 29.39064,0.1649 35.56807,-0.047 38.54453,-1.3221 4.517239,-1.9353 11.52018,-9.8484 12.43969,-14.0565 0.94971,-4.3464 0.59254,-21.2003 -0.56107,-26.4759 -0.50995,-2.3321 -0.6888,-9.0821 -0.39745,-15 0.29136,-5.918 0.93468,-19.0849 1.42959,-29.2599 0.49492,-10.175 0.93808,-35.15 0.98481,-55.5 0.0467,-20.35 0.57268,-43.75 1.16878,-52 1.0748,-14.8755 0.70848,-27.5237 -1.18742,-40.9983 -2.86455,-20.3591 -13.34647,-41.1114 -27.5542,-54.5523 -6.24938,-5.9121 -28.58323,-21.2945 -39.36726,-27.1142 -8.68583,-4.6874 -12.32084,-5.5283 -34.000002,-7.8657 -10.17499,-1.097 -22.32499,-2.5131 -26.99999,-3.1469 -12.20167,-1.6541 -103.94432,-1.6507 -119,0.01 -19.71737,2.1678 -39.84513,6.1007 -46.39243,9.0651 -7.89701,3.5754 -11.77289,9.2945 -11.85956,17.4996 -0.0297,2.8095 0.2806,16.5832 0.6895,30.6082 0.7121,24.4243 0.85026,25.7257 3.27524,30.8496 1.85882,3.9276 3.74231,6.1172 7.08607,8.2378 6.99166,4.4339 9.61466,4.5331 28.08388,1.0613 29.39023,-5.5246 47.41609,-8.1533 55.89407,-8.151 13.06289,0 46.97206,3.0024 51.32811,4.5393 9.67572,3.4133 19.89512,12.7595 19.89512,18.1946 0,2.3913 -3.13395,6.1954 -5.25,6.3726 -5.37339,0.45 -14.99059,-0.4744 -22.40309,-2.1533 -7.26598,-1.6458 -27.32791,-4.0148 -35.84691,-4.2331 -9.1597,-0.2346 -41.15596,2.6593 -47,4.251 -23.23481,6.3281 -39.79433,11.2279 -43.91371,12.9937 -4.76903,2.0443 -14.27484,8.7624 -20.43981,14.4455 -9.8648,9.0939 -24.42337,32.3193 -27.01137,43.0915 -0.52855,2.2 -1.62129,6.475 -2.42831,9.5 -4.43228,16.6138 -5.69957,39.6652 -2.80236,50.9736 1.21696,4.7501 7.02642,18.4704 10.385,24.5264 0.61004,1.1 2.34705,4.25 3.86001,7 3.19504,5.8074 20.2809,23.7753 26.85055,28.2368 8.6403,5.8676 15.52614,9.9139 19,11.1647 10.65536,3.8366 39.0563,11.0743 47.13695,12.0124 5.14968,0.5978 10.71305,1.2443 12.36305,1.4367 10.14015,1.1821 21.19693,0.395 39,-2.7764 z m -10.5,-92.4569 c -7.42064,-1.5447 -11.88776,-6.6297 -12.69498,-14.4508 -1.03756,-10.053 4.11251,-18.4489 13.89911,-22.659 4.87278,-2.0962 6.14616,-2.196 20.99413,-1.6463 17.04946,0.6314 23.16012,2.198 27.78827,7.1245 7.85359,8.3597 1.71954,24.9077 -10.69237,28.8451 -4.34467,1.3782 -8.32527,1.8007 -29.29416,3.1094 -3.575,0.2231 -8.075,0.078 -10,-0.3229 z m 813.2813,93.287 c 17.1703,-2.5556 25.4053,-6.9514 29.5531,-15.7754 2.5886,-5.5069 2.8762,-13.1708 1.1495,-30.6289 -1.6132,-16.3113 -1.6176,-16.6779 -0.4302,-35.5 1.7688,-28.0372 1.069,-33.774 -4.9207,-40.3373 -4.4238,-4.8475 -7.6228,-5.4498 -30.133,-5.6733 -31.5617,-0.3133 -47.0927,-1.3782 -53.1723,-3.6458 -9.5229,-3.5518 -16.1516,-13.3711 -17.0282,-25.2243 -0.8815,-11.9195 3.9732,-23.7763 12.3516,-30.1668 7.8637,-5.9978 12.66,-6.7289 48.3489,-7.3693 21.8051,-0.3913 33.1581,-0.9643 34.5,-1.7414 5.5089,-3.1901 9.749,-10.8199 11.3046,-20.3418 0.6741,-4.1267 0.9375,-22.405 0.7213,-50.0603 -0.3703,-47.3685 -0.395,-47.5827 -6.1359,-53.3359 -1.5895,-1.5928 -5.365,-4.0678 -8.39,-5.5 l -5.5,-2.6038 -42.5,-0.1687 c -43.6403,-0.1733 -54.6914,0.479 -69,4.0724 -24.4465,6.1395 -35.0428,11.3428 -54.7097,26.8653 -13.036,10.289 -17.6403,15.1691 -26.3465,27.9248 -3.4935,5.1184 -8.4794,12.0275 -11.0798,15.3536 -5.9664,7.6312 -12.6584,20.925 -17.3433,34.4526 -8.3563,24.1292 -9.7944,33.602 -8.9551,58.989 0.7394,22.3652 4.1867,42.2787 10.4751,60.511 3.5874,10.4009 5.3957,14.301 10.4791,22.6004 5.5558,9.0708 9.9677,13.8896 26.4598,28.8996 5.1366,4.675 11.855,10.89 14.9298,13.8111 12.1562,11.5484 22.5533,17.7231 44.7839,26.5964 11.7237,4.6795 12.2717,4.7773 50.8067,9.0681 13.6295,1.5176 46.3234,0.9318 59.7813,-1.0713 z m 312.7187,-0.3631 c 7.0126,-0.5546 16.7678,-0.5435 25,0.028 30.41088,2.1123 34.76538,2.227 39.48068,1.0397 8.3947,-2.1138 12.062,-5.9937 15.0872,-15.9616 1.9762,-6.5112 1.7757,-14.8515 -0.6773,-28.183 -1.6346,-8.8836 -1.9679,-13.4907 -1.4804,-20.4646 0.346,-4.95 1.0886,-20.475 1.6503,-34.5 0.5617,-14.025 1.3404,-32.7 1.7304,-41.5 0.3901,-8.8 0.3901,-22.075 0,-29.5 -0.3901,-7.425 -1.153,-23.625 -1.6954,-36 -1.5743,-35.9171 -2.8248,-41.4922 -15.2008,-67.7693 -2.1421,-4.5482 -3.8947,-8.6401 -3.8947,-9.0932 0,-1.9002 -10.18128,-15.1151 -14.94508,-19.3982 -12.7953,-11.5041 -30.0473,-21.2501 -42.5549,-24.0403 -3.85,-0.8588 -13.9884,-2.0493 -22.5299,-2.6455 -13.906,-0.9706 -16.9004,-0.8769 -28.6383,0.8964 -10.2655,1.5509 -14.7238,2.7471 -20.5557,5.5153 -4.096,1.9441 -7.9573,3.5348 -8.5808,3.5348 -1.9462,0 -9.4719,4.1522 -14.7807,8.155 -2.797,2.1089 -6.5363,4.3401 -8.3094,4.9582 -2.8301,0.9866 -3.5097,0.8554 -5.5631,-1.0736 -3.0393,-2.8553 -3.4856,-5.5763 -2.4413,-14.883 0.4725,-4.2111 1.112,-20.1491 1.421,-35.4177 0.5397,-26.6612 0.4789,-27.9489 -1.5335,-32.5 -4.4848,-10.1422 -11.817,-14.552 -23.9883,-14.4272 -7.1722,0.074 -39.5879,-0.011 -82.5235,-0.2162 -19.607,-0.093 -20.1269,-0.042 -24.9973,2.4625 -4.0144,2.0645 -5.5099,3.6076 -7.7532,8 l -2.7795,5.442 0.083,38.5 c 0.1131,52.1794 0.015,59.4608 -1.102,82 -2.058,41.5149 -2.1301,51.6749 -0.5675,80 0.9254,16.7757 1.2996,33.0252 0.9097,39.5 -0.6514,10.8158 -0.6638,14.4761 -0.175,51.5 0.1343,10.175 -0.067,25.025 -0.4472,33 -1.6396,34.3824 -0.6111,45.8917 4.8131,53.8614 4.8899,7.1847 8.7392,8.6502 22.5389,8.5808 6.325,-0.032 25.675,-0.042 43,-0.022 17.325,0.02 37.35,0.035 44.5,0.033 10.7054,0 13.6178,-0.3282 16.5,-1.8485 4.9779,-2.6258 6.9475,-4.5676 8.7073,-8.5847 2.1233,-4.8468 2.8678,-23.3194 1.3508,-33.5158 -1.7655,-11.8667 -1.8199,-31.1137 -0.1018,-36.0045 1.0966,-3.1216 1.3154,-8.8316 0.9965,-26 -0.7923,-42.6404 -0.6596,-46.2976 1.9411,-53.5 2.6133,-7.2377 7.7731,-14.2593 12.1361,-16.5156 5.7028,-2.949 15.0479,-1.281 20.97,3.743 3.1476,2.6703 7.196,9.0076 9.2819,14.5297 1.9817,5.2465 2.1855,7.8171 2.3573,29.7429 0.1035,13.2 0.6978,30.1968 1.3207,37.7706 0.6229,7.5739 0.8312,14.2584 0.4628,14.8544 -0.5285,0.8552 -1.8382,28.6334 -2.7311,57.9244 -0.1581,5.1892 4.9241,11.0888 12.3132,14.2933 7.7405,3.357 25.923,5.8836 35.9952,5.0019 2.475,-0.2167 9.675,-0.8033 16,-1.3034 z m -1471,-1.3447 c 2.475,-0.063 11.025,0.1846 19,0.5507 9.71536,0.4459 22.06743,0.1351 37.43336,-0.9419 19.88687,-1.3939 25.41336,-1.4341 41.60228,-0.3028 31.71114,2.216 43.32387,0.6142 55.64769,-7.6759 10.2095,-6.8678 15.42974,-17.9756 17.07218,-36.3266 0.70593,-7.8873 0.70242,-54.598 -0.0121,-161.5 -0.0551,-8.25 0.27281,-26.5406 0.72878,-40.6458 0.8493,-26.2723 0.42401,-32.2191 -3.05044,-42.6538 -3.67438,-11.0351 -11.12622,-20.429 -19.23209,-24.2442 -10.80776,-5.087 -12.12866,-5.2094 -48.14885,-4.4623 -25.31564,0.525 -36.60612,0.3659 -46.04077,-0.6491 -18.14181,-1.9517 -40.03391,-1.7396 -47.24554,0.4578 -6.95713,2.1199 -12.28475,6.5782 -15.13265,12.6635 -1.97972,4.2303 -2.12779,6.2416 -2.21114,30.0339 -0.0491,14.025 -0.45394,32.3206 -0.89956,40.6569 l -0.81023,15.157 2.67614,4.5665 c 1.70791,2.9143 4.38506,5.571 7.39956,7.343 4.56242,2.682 5.20554,2.7766 18.86759,2.7766 15.90608,0 17.45821,0.5895 19.32182,7.339 3.01469,10.9183 -6.27601,18.1121 -26.19948,20.2863 -12.90086,1.4078 -37.89034,0.6021 -47.76651,-1.5401 -20.72314,-4.4951 -31.6518,-9.9434 -43.03446,-21.4545 -15.41008,-15.5839 -21.23802,-30.424 -23.61698,-60.1377 -0.97881,-12.2254 2.19416,-29.6701 7.72896,-42.493 5.74101,-13.3007 21.56414,-31.9048 34.02599,-40.0062 7.33544,-4.7687 17.29408,-9.3316 26.39649,-12.0944 7.433,-2.2561 21.78662,-2.328 76.5,-0.383 55.53448,1.9742 82.85404,1.8888 90.81333,-0.284 12.11381,-3.3069 18.73845,-9.9156 21.78489,-21.7324 1.46268,-5.6736 1.56297,-9.17 0.78876,-27.5 -0.48784,-11.55 -0.72353,-37.2207 -0.52375,-57.0461 0.3766,-37.3724 0.0718,-41.5542 -3.9339,-53.9786 -2.27961,-7.0705 -8.52209,-14.7473 -15.64823,-19.2436 -4.8082,-3.0338 -12.66866,-5.3757 -23.77615,-7.0839 -7.60082,-1.1688 -126.95065,-0.4599 -150.50499,0.894 -9.625,0.5532 -22.9,1.2103 -29.5,1.4602 -14.23547,0.539 -26.0088,2.4446 -41,6.6359 -16.29871,4.557 -33.61674,10.3632 -56.91242,19.0811 -1.60183,0.5994 -6.45363,2.8204 -10.78177,4.9355 -4.32815,2.115 -8.08487,3.8455 -8.34827,3.8455 -0.2634,0 -4.47163,2.4698 -9.35163,5.4884 -8.67078,5.3636 -22.81299,18.8531 -32.87167,31.3546 -2.05383,2.5526 -7.78424,9.2834 -12.73424,14.9573 -18.01797,20.6529 -19.79046,22.8177 -24.31689,29.6997 -11.81367,17.9615 -19.91851,37.4487 -26.00377,62.5234 -3.72692,15.357 -3.79039,15.8258 -6.22465,45.9766 -1.08792,13.475 -2.59483,29.225 -3.34869,35 -2.35005,18.0027 -1.6306,43.2014 1.91294,67 1.98319,13.3192 3.70719,20.4564 7.49941,31.047 3.04953,8.5164 3.95993,10.9017 7.99718,20.953 8.41851,20.9592 24.66628,51.2762 33.14479,61.8455 18.83376,23.4782 34.43056,39.1522 54.54752,54.8174 11.91389,9.2774 30.84632,22.0923 36.29216,24.5654 24.44391,11.1003 42.85017,15.3812 91,21.1645 2.78037,0.334 45.52696,-0.097 69,-0.6963 z m 254.71819,-359.7195 c 2.66449,-2.7253 9.28181,-17.6878 9.28181,-20.9873 0,-0.7203 2.70578,-6.875 6.01284,-13.677 4.1423,-8.5199 6.7088,-12.6471 8.25,-13.2667 1.23044,-0.4947 7.29908,-1.3697 13.48588,-1.9444 6.18679,-0.5748 13.83679,-1.7481 17,-2.6076 3.1632,-0.8594 7.55128,-2.0573 9.75128,-2.6621 10.1978,-2.8033 25.13602,-8.1231 30.78089,-10.9616 11.86812,-5.968 30.04029,-22.8208 33.81931,-31.3639 4.5281,-10.2365 2.99178,-27.152 -3.29608,-36.2911 -7.88228,-11.4565 -12.15221,-14.8151 -31.29184,-24.6133 -7.14325,-3.6569 -13.63075,-7.2919 -14.41667,-8.0778 -2.02348,-2.0235 -1.77762,-6.1831 0.84812,-14.3492 l 2.27706,-7.0817 -2.12616,-3.4402 c -2.25296,-3.6454 -7.34398,-6.6556 -11.24576,-6.6494 -3.20954,0.01 -8.37641,3.3116 -10.46755,6.6986 -6.32827,10.2497 -11.84763,17.4506 -20.2959,26.4793 -15.74494,16.8268 -16.7256,18.8083 -10.93867,22.1025 l 3.13411,1.7841 -0.63006,6.7792 c -0.34654,3.7286 -1.48009,9.2258 -2.51901,12.216 -5.5247,15.9009 -9.63728,26.7786 -12.64146,33.4366 -12.08996,26.7943 -29.47669,77.4556 -29.48781,85.9213 -0.004,3.3886 2.95317,5.5787 7.53381,5.5787 3.38463,0 4.81498,-0.6021 7.18186,-3.023 z m 32.47538,-71.7667 c -1.63407,-1.1233 -0.43384,-3.9417 17.34067,-40.7199 6.65748,-13.7754 9.09528,-17.8159 12.82082,-21.25 3.56817,-3.2891 5.37893,-4.2404 8.07097,-4.2404 4.80521,0 18.52524,4.4777 22.97724,7.4989 2.02705,1.3756 4.11097,2.5011 4.63092,2.5011 0.51996,0 2.5411,2.4033 4.49142,5.3407 2.951,4.4445 3.55713,6.2695 3.61215,10.8753 0.0735,6.1516 -0.81754,8.3002 -6.05253,14.5952 -8.31772,10.0018 -18.57579,15.3935 -41.57581,21.8524 -12.53486,3.52 -24.08935,5.0773 -26.31585,3.5467 z m 184.145292,72.851 c 4.15169,-1.5785 6.37164,-4.8723 10.7423,-15.9385 9.81169,-24.8425 15.31927,-32.1095 29.41883,-38.817 7.9226,-3.769 8.13686,-3.8091 22.145479,-4.1473 11.888001,-0.2871 14.5496706,-0.077 16.6781806,1.3179 1.88759,1.2368 4.27033,1.5785 9.35452,1.3416 6.78864,-0.3165 6.8205704,-0.3056 6.56448,2.2374 -0.14154,1.4055 -1.86658,6.3555 -3.83343,11 -1.96684,4.6445 -4.91542,11.8196 -6.55239002,15.9446 -1.63696998,4.125 -3.63944998,9.0093 -4.44994998,10.8539 -4.55552,10.3681 -2.20623,15.9387 6.23394,14.7818 7.91247,-1.0845 10.4202704,-3.8904 16.3904104,-18.3388 2.90827,-7.0383 6.68162,-16.1719 8.38523,-20.2969 4.84842,-11.7396 7.91277,-16.361 11.73763,-17.7016 4.76482,-1.67 30.905297,-6.5723 31.559197,-5.9185 0.3001,0.3001 -0.6892,4.4999 -2.198497,9.3329 -7.89249,25.2739 -10.82829,38.3325 -9.43918,41.9861 0.71288,1.875 1.61958,2.3011 4.89675,2.3011 3.17613,0 4.82013,-0.7212 7.818127,-3.4297 2.088,-1.8864 4.3209,-4.4739 4.9621,-5.75 3.2223,-6.4138 9.5246,-22.5818 12.79331,-32.8203 2.0192,-6.325 4.7105,-14.425 5.9806,-18 4.4793,-12.6081 4.76,-13.7223 4.1097,-16.3132 -0.5058,-2.0156 -1.6076,-2.8713 -4.8055,-3.7324 -5.1799,-1.3948 -9.89901,-0.5497 -15.21111,2.7239 -5.617,3.4616 -6.8075,5.1022 -5.4893,7.5651 1.2321,2.3023 0.3278,8.3554 -1.4086,9.4286 -2.6797,1.6562 -21.697807,-0.3371 -27.219207,-2.8528 -3.33746,-1.5207 -3.62495,-4.0338 -1.39062,-12.1565 1.08365,-3.9395 2.68936,-9.8627 3.56824,-13.1627 0.87887,-3.3 2.66039,-8.4185 3.95892,-11.3744 1.29853,-2.956 2.36097,-6.7278 2.36097,-8.382 0,-3.4633 -3.29101,-9.2938 -6.09193,-10.7928 -3.14672,-1.6841 -10.74324,-1.4099 -12.81208,0.4623 -1.94838,1.7633 -4.76877,10.1568 -7.58965,22.5869 -3.88546,17.1211 -8.98244,29.4502 -12.79237,30.9434 -1.21768,0.4773 -5.9328304,2.0729 -10.4781004,3.5458 l -8.26412,2.6781 -8.7296796,-3.7495 c -6.45529,-2.7726 -10.555041,-3.8657 -15.73588,-4.1956 -6.75241,-0.43 -7.33053,-0.2791 -15.96059,4.1658 -12.19812,6.2827 -12.72623,6.2097 -10.0456,-1.388 2.1368,-6.0563 1.87749,-8.5497 -1.25,-12.019 -3.87928,-4.3031 -9.41175,-5.1038 -12.90998,-1.8682 -3.66228,3.3872 -5.62485,8.3779 -13.52271,34.3872 -3.84124,12.65 -7.66488,23.7583 -8.49697,24.6851 -2.1942,2.444 -9.830632,5.8149 -13.173082,5.8149 -3.68873,0 -7.45149,-3.7343 -9.01247,-8.9444 -1.06657,-3.56 -0.91111,-4.8693 1.39309,-11.7334 2.54076,-7.5688 2.55818,-7.805 0.8544,-11.5833 -2.36591,-5.2466 -6.8059,-8.2623 -11.87526,-8.0658 -6.70994,0.2601 -30.5191,10.3929 -41.18135,17.5262 -4.89674,3.276 -9.32566,5.117 -9.32566,3.8764 0,-1.7575 17.13903,-18.0708 21.75171,-20.7037 2.61156,-1.4907 5.42329,-3.2509 6.24829,-3.9115 0.825,-0.6606 4.36874,-2.4712 7.87497,-4.0235 l 6.37497,-2.8223 5.24052,2.8348 c 5.31042,2.8726 9.08259,2.9796 12.25394,0.3477 4.01041,-3.3284 -1.0502,-16.2811 -7.57283,-19.3827 -4.65322,-2.2127 -12.30377,-2.8485 -16.84004,-1.3995 -7.28803,2.328 -23.56959,11.0208 -31.68456,16.9164 -12.38142,8.9953 -30.75733,28.9779 -35.87018,39.0064 -3.60734,7.0756 -1.32148,18.0948 4.38745,21.1501 6.0478,3.2367 25.71116,-4.3991 44.62606,-17.3295 2.62154,-1.7921 7.15299,-4.3651 10.06989,-5.7177 4.89076,-2.2678 5.51109,-2.3429 7.97164,-0.9644 1.6904,0.9471 4.02606,4.2793 6.37362,9.0932 5.4641,11.2047 13.05207,16.8305 22.7004,16.8305 3.08106,0 8.07319,-2.2 13.004372,-5.7309 l 2.41023,-1.7258 -0.6917,2.9783 c -1.91382,8.2406 -1.85585,10.9378 0.29364,13.6615 1.1646,1.4756 3.12098,2.8769 4.34753,3.1138 1.22654,0.2369 2.53828,0.492 2.91497,0.5669 0.3767,0.075 1.79598,-0.2862 3.15397,-0.8025 z m 396.507938,-8.9861 c 6.707,-2.6622 23.1703,-14.3301 29.2541,-20.733 5.873,-6.1809 10.3445,-12.2301 9.5947,-12.9799 -0.3208,-0.3208 -3.196,1.4444 -6.3894,3.9227 -7.0082,5.4388 -11.7388,7.872 -23.7757,12.2292 -18.0978,6.5511 -25.6452,6.536 -31.4392,-0.063 -2.4787,-2.8232 -3.0913,-4.4155 -3.0913,-8.0357 0,-2.4832 0.6553,-5.7821 1.4562,-7.3309 1.3511,-2.6128 1.9827,-2.8515 8.75,-3.3078 7.8122,-0.5268 14.091,-3.0419 24.9059,-9.9769 7.4336,-4.7667 10.4058,-10.4932 9.5832,-18.4638 -1.0393,-10.0689 -5.4305,-13.4348 -16.8291,-12.8992 -5.1908,0.2439 -8.236,1.0984 -14,3.9287 -14.8279,7.2808 -23.471,16.463 -30.2477,32.1343 -2.569,5.9407 -3.0176,8.216 -2.9647,15.0351 0.075,9.635 2.2429,15.3232 7.9603,20.8845 6.911,6.7224 12.8444,8.7036 24.3859,8.1426 4.5113,-0.2193 9.6307,-1.2103 12.8468,-2.487 z m -12.8468,-52.4009 c 0,-2.7284 7.1006,-7.6743 11.0176,-7.6743 3.0455,0 2.06,1.9381 -2.9238,5.75 -4.3925,3.3595 -8.0938,4.2395 -8.0938,1.9243 z m -83.3378,50.3366 c 14.0744,-7.033 29.2129,-25.3054 43.6342,-52.6669 l 7.2036,-13.6675 4.8407,-1.2067 c 8.7931,-2.1919 11.8113,-8.2033 7.2649,-14.4698 -1.3966,-1.925 -3.3213,-4.5741 -4.2772,-5.887 -1.658,-2.2773 -1.6357,-2.9895 0.4861,-15.5 2.6452,-15.5964 2.8772,-32.1221 0.6313,-44.9619 -2.055,-11.7479 -4.6016,-18.1835 -9.4068,-23.7715 -7.0247,-8.1692 -13.6662,-9.4883 -18.55,-3.6842 -4.0435,4.8055 -3.313,8.0719 4.4296,19.8046 5.729,8.6815 7.0633,12.4828 8.2742,23.573 1.7449,15.9798 -1.3448,36.4699 -6.7325,44.6491 -2.944,4.4693 -5.7289,5.9816 -14.9603,8.124 -6.7022,1.5554 -10.20974,2.1503 -36.7256,6.2314 -3.97659,0.612 -15.60342,0.448 -22.69985,0.9823 -4.41231,0.3323 -6.1244,1.4961 -6.04561,1.5749 0.4089,0.4088 46.19806,-1.8214 54.87646,-2.8228 7.3207,-0.8448 6.2072,0.4671 -5.1613,6.0808 -15.6494,7.7275 -24.7878,17.0223 -30.0493,30.5633 -2.7135,6.9833 -2.8982,8.2918 -2.4855,17.6053 0.517,11.669 2.4218,16.6675 7.6886,20.1755 4.7935,3.1928 10.3791,2.9645 17.7643,-0.7259 z m -4.6622,-26.5441 c 0,-4.0019 4.4016,-11.5526 9.6676,-16.5842 5.383,-5.1435 12.1276,-9.8826 14.0645,-9.8826 5.2934,0 -7.0438,18.8669 -17.1014,26.1526 -4.8749,3.5313 -6.6307,3.6145 -6.6307,0.3142 z m -51.34724,-47.8628 c 0,-0.2066 -3.67146,-0.6748 -8.58326,-3.5095 -10.5202,-6.0716 -16.86,-12.1545 -21.9853,-21.0945 -4.0815,-7.1194 -5.3584,-10.9896 -7.0611,-21.4017 -1.4396,-8.8034 -3.0912,-11.9282 -7.3802,-13.9635 -4.3059,-2.0433 -5.5879,-2.0407 -10.7414,0.021 -3.1808,1.2727 -4.569501,2.604 -5.998301,5.75 -3.5227,7.7566 -1.8494,11.212 7.961401,16.4411 3.2956,1.7565 7.1912,4.647 8.657,6.4233 11.4562,13.8831 27.05423,27.3861 36.7787,31.779 0.81992,0.3704 2.99464,2.472 5.86376,2.8416 10.25772,1.3212 27.50698,-0.7077 3.18318,-2.5611 z"
           style="fill:#79bf2e;fill-opacity:1" />
        <path
           id="path3026"
           d="M -933.83517,1092.3185 H 1398.1648 c -0.1603,0 -2.6308,875.6224 0,875.3107 -1.0553,0.6522 -42.4867,-1.8315 -43.3446,-2.6893 -0.3531,-0.3532 0.4902,-1.875 1.8741,-3.3817 6.5143,-7.0925 9.1138,-13.1427 10.9169,-25.408 0.9234,-6.2815 0.8381,-9.4944 -0.4717,-17.7643 -0.8795,-5.5527 -1.8801,-14.7019 -2.2237,-20.3316 -0.4249,-6.9632 -1.9803,-15.6735 -4.8649,-27.2438 -4.0605,-16.2872 -4.5534,-17.5357 -11.6294,-29.4549 -6.6709,-11.2369 -8.8046,-13.8386 -21.9496,-26.7648 -12.8891,-12.6745 -16.1031,-15.244 -28,-22.3857 -21.1189,-12.6776 -24.7635,-14.2481 -42.48,-18.3056 -16.407,-3.7575 -20.0847,-4.3915 -40.9596,-7.0614 -21.4647,-2.7452 -42.5442,-2.4016 -63.5,1.0352 -12.6096,2.068 -19.6418,4.3629 -33.5549,10.9502 -6.3834,3.0223 -12.0127,5.4951 -12.5097,5.4951 -3.5239,0 -16.0139,7.9628 -38.186,24.3447 -1.5128,1.1177 -4.8739,4.7599 -7.4691,8.0938 -2.5952,3.3338 -7.0343,8.5365 -9.8646,11.5615 -6.7375,7.2009 -8.88,10.7949 -16.2496,27.2584 -9.549,21.3324 -15.7575,47.1516 -16.8303,69.9916 l -0.6459,13.75 h -9.2225 c -6.178,0 -9.55257,-0.4126 -10.22247,-1.25 -1.0007,-1.2509 -1.4786,-8.523 -3.2034,-48.75 -1.4879,-34.7015 -2.83,-40.6178 -15.1468,-66.7694 -2.1421,-4.5481 -3.8947,-8.64 -3.8947,-9.0931 0,-1.9002 -10.18134,-15.1151 -14.94514,-19.3982 -12.7953,-11.5041 -30.0473,-21.2502 -42.5549,-24.0403 -3.85,-0.8588 -13.9884,-2.0493 -22.5299,-2.6455 -13.906,-0.9707 -16.9004,-0.8769 -28.6383,0.8964 -10.2655,1.5509 -14.7238,2.747 -20.5557,5.5152 -4.096,1.9442 -7.9573,3.5349 -8.5808,3.5349 -1.9462,0 -9.4719,4.1521 -14.7807,8.1549 -2.797,2.1089 -6.5363,4.3401 -8.3094,4.9583 -2.8301,0.9866 -3.5097,0.8554 -5.5631,-1.0737 -3.0393,-2.8552 -3.4856,-5.5762 -2.4413,-14.8829 0.4725,-4.2111 1.112,-20.1491 1.421,-35.4177 0.5397,-26.6612 0.4789,-27.9489 -1.5335,-32.5 -4.4848,-10.1423 -11.817,-14.552 -23.9883,-14.4272 -7.1722,0.074 -39.5879,-0.011 -82.5235,-0.2162 -19.607,-0.093 -20.1269,-0.042 -24.9973,2.4625 -4.0144,2.0645 -5.5099,3.6076 -7.7532,8 l -2.7795,5.442 0.085,38.5 c 0.1161,52.4972 0.036,58.474 -1.0956,82 -0.5425,11.275 -1.2637,26.3745 -1.6028,33.5545 -0.3391,7.18 -0.06,23.9894 0.6208,37.3543 0.6806,13.3648 0.8568,24.673 0.3916,25.1293 -0.4651,0.4562 -3.5457,0.922 -6.8457,1.0349 -8.9673,0.3069 -96.0005,-1.0162 -111.25,-1.6913 -12.8082,-0.567 -13.25,-0.66 -13.25,-2.7871 0,-2.9708 5.0888,-9.701 9.7225,-12.8586 7.94,-5.4107 12.0689,-5.9904 47.2775,-6.6381 21.779,-0.4007 33.1598,-0.98 34.5,-1.7561 5.5089,-3.1901 9.749,-10.8199 11.3046,-20.3418 0.6741,-4.1267 0.9375,-22.405 0.7213,-50.0603 -0.3703,-47.3685 -0.395,-47.5827 -6.1359,-53.3359 -1.5895,-1.5928 -5.365,-4.0678 -8.39,-5.5 l -5.4998,-2.6038 -42.5,-0.1687 c -43.6403,-0.1733 -54.6914,0.479 -69,4.0724 -24.4465,6.1395 -35.0428,11.3428 -54.7097,26.8653 -13.036,10.289 -17.6403,15.1691 -26.3465,27.9248 -3.4935,5.1184 -8.4794,12.0275 -11.0798,15.3536 -11.2428,14.38 -23.0719,45.4873 -25.8402,67.9526 -1.8674,15.1537 -0.2599,13.6067 -13.8008,13.2815 l -11.723,-0.2815 -0.8099,-12.5 c -0.4454,-6.875 -0.8954,-27.125 -1,-45 -0.173,-29.5857 0.014,-33.7554 2.084,-46.5 1.2507,-7.7 2.3653,-17.6 2.4769,-22 0.1818,-7.1716 -0.1001,-8.5512 -2.723,-13.3236 -4.3703,-7.9515 -11.1466,-12.7603 -21.3675,-15.1634 -4.2871,-1.008 -8.2077,-1.0066 -19.8926,0.01 -8.8606,0.7687 -20.4627,1.0254 -29.6606,0.6563 -8.309,-0.3335 -19.1573,-0.1678 -24.1073,0.368 -6.2217,0.6736 -12.8588,0.6202 -21.5,-0.173 -14.9367,-1.3709 -19.1343,-0.5496 -25.2095,4.9323 -7.1837,6.4822 -7.8858,11.0189 -5.6792,36.6962 0.9478,11.0283 0.8437,15.7301 -0.6862,31 -1.2364,12.3405 -1.8441,27.2754 -1.9327,47.5 -0.073,16.6744 -0.5652,30.8043 -1.1319,32.5 l -1.0026,3 -17.8552,0.2738 c -11.6691,0.179 -18.2246,-0.096 -18.9216,-0.7926 -1.4129,-1.4129 -1.6612,-34.1047 -0.334,-43.9812 0.5543,-4.125 1.1222,-17.175 1.2621,-29 0.1398,-11.825 0.5913,-28.5609 1.0032,-37.191 0.6308,-13.2143 0.4766,-16.8479 -0.9768,-23.0197 -2.7537,-11.6931 -9.3651,-19.2126 -19.0626,-21.6808 -4.3231,-1.1003 -56.529701,0.1113 -59.685001,1.3852 -0.9416,0.3801 -6.5666,0.1628 -12.50001,-0.4831 -15.849077,-1.7251 -32.338857,-1.4865 -38.490937,0.5569 -6.91383,2.2964 -12.25034,7.3554 -14.71907,13.9536 -2.8144,7.5222 -3.20225,17.1169 -3.40341,84.1936 -0.15508,51.7107 -0.3521,58.3921 -1.76354,59.8032 -1.26362,1.2634 -4.88619,1.7113 -17.6927504,2.1876 l -16.1037996,0.5989 -0.7048,-2.8081 c -0.38763,-1.5445 -0.36709,-8.9255 0.0457,-16.4022 2.47117,-44.7639 0.44897,-62.1582 -9.589661,-82.4871 -8.481189,-17.1747 -17.140859,-26.3764 -37.865729,-40.2359 -15.96037,-10.6733 -24.84124,-15.6079 -31,-17.2252 -2.475,-0.6498 -12.825002,-2.0791 -23.000002,-3.1761 -10.17499,-1.097 -22.32499,-2.5132 -26.99999,-3.1469 -12.20167,-1.6542 -103.94432,-1.6508 -119,0 -19.71737,2.1678 -39.84513,6.1007 -46.39243,9.0651 -7.89701,3.5754 -11.77289,9.2945 -11.85956,17.4996 -0.0297,2.8095 0.2806,16.5832 0.6895,30.6082 0.7121,24.4243 0.85026,25.7257 3.27524,30.8496 1.85882,3.9276 3.74231,6.1172 7.08607,8.2378 6.99166,4.434 9.61466,4.5331 28.08388,1.0613 29.39023,-5.5246 47.41609,-8.1533 55.89407,-8.151 13.06289,0 46.97206,3.0024 51.32811,4.5393 9.67572,3.4133 19.89512,12.7595 19.89512,18.1946 0,2.3913 -3.13395,6.1954 -5.25,6.3726 -5.37339,0.45 -14.99059,-0.4744 -22.40309,-2.1533 -7.26598,-1.6458 -27.32791,-4.0148 -35.84691,-4.2331 -9.1597,-0.2346 -41.15596,2.6593 -47,4.251 -23.23481,6.3281 -39.79433,11.2279 -43.91371,12.9937 -4.76903,2.0443 -14.27484,8.7624 -20.43981,14.4455 -6.43617,5.9333 -16.17465,19.4416 -21.19657,29.4021 -2.78292,5.5197 -5.59761,10.4785 -6.25488,11.0197 -0.65727,0.5412 -7.49503,1.1383 -15.19503,1.3268 l -14,0.3429 -0.74982,-19 c -1.18797,-30.1025 -1.298,-57.9653 -0.33822,-85.6458 0.9128,-26.3255 0.50374,-32.1604 -2.99025,-42.6538 -3.67438,-11.0351 -11.12622,-20.429 -19.23209,-24.2442 -10.80776,-5.087 -12.12866,-5.2094 -48.14885,-4.4623 -25.31564,0.525 -36.60612,0.3659 -46.04077,-0.6491 -18.14181,-1.9517 -40.03391,-1.7396 -47.24554,0.4578 -6.95713,2.1199 -12.28475,6.5782 -15.13265,12.6635 -1.97972,4.2303 -2.12779,6.2416 -2.21114,30.0339 -0.0491,14.025 -0.45394,32.3206 -0.89956,40.6569 l -0.81023,15.157 2.67614,4.5665 c 1.70791,2.9143 4.38506,5.571 7.39956,7.343 4.56242,2.682 5.20554,2.7766 18.86759,2.7766 15.90608,0 17.45821,0.5895 19.32182,7.339 3.01469,10.9183 -6.27601,18.1121 -26.19948,20.2863 -12.90086,1.4078 -37.89034,0.6021 -47.76651,-1.5401 -20.72314,-4.4951 -31.6518,-9.9434 -43.03446,-21.4545 -15.41008,-15.5839 -21.23802,-30.424 -23.61698,-60.1377 -0.97881,-12.2254 2.19416,-29.6701 7.72896,-42.493 5.74101,-13.3007 21.56414,-31.9048 34.02599,-40.0062 7.33544,-4.7687 17.29408,-9.3316 26.39649,-12.0944 7.433,-2.2561 21.78662,-2.328 76.5,-0.383 55.53448,1.9742 82.85404,1.8888 90.81333,-0.284 12.11381,-3.3069 18.73845,-9.9156 21.78489,-21.7324 1.46268,-5.6736 1.56297,-9.17 0.78876,-27.5 -0.48784,-11.55 -0.72353,-37.2207 -0.52375,-57.0461 0.3766,-37.3724 0.0718,-41.5542 -3.9339,-53.9786 -2.27961,-7.0705 -8.52209,-14.7473 -15.64823,-19.2436 -4.8082,-3.0338 -12.66866,-5.3757 -23.77615,-7.0839 -7.60078,-1.1688 -126.95061,-0.4599 -150.50495,0.894 -9.625,0.5532 -22.9,1.2103 -29.5,1.4602 -14.23547,0.539 -26.0088,2.4446 -41,6.6359 -16.29871,4.557 -33.61674,10.3632 -56.91242,19.0811 -1.60183,0.5994 -6.45363,2.8204 -10.78177,4.9355 -4.32815,2.115 -8.08487,3.8455 -8.34827,3.8455 -0.2634,0 -4.47163,2.4698 -9.35163,5.4884 -8.67078,5.3636 -22.81299,18.8531 -32.87167,31.3546 -2.05383,2.5526 -7.78424,9.2834 -12.73424,14.9573 -18.01797,20.6529 -19.79046,22.8177 -24.31689,29.6997 -11.81367,17.9615 -19.91851,37.4487 -26.00377,62.5234 -3.72692,15.357 -3.79039,15.8258 -6.22465,45.9766 -1.08792,13.475 -2.59483,29.225 -3.34869,35 -2.35005,18.0027 -1.6306,43.2014 1.91294,67 1.98319,13.3192 3.70719,20.4564 7.49941,31.047 9.22236,25.7552 17.98002,44.8221 30.52258,66.453 3.18916,5.5 6.50662,11.218 7.37215,12.7066 2.7769,4.7761 3.86449,4.5 -40.41308,10.2585 -19.50113,2.5362 -33.67465,4.4413 -48.4391,6.5109 -16.64979,2.3339 -33.55359,2.3898 -34.42836,0.9744 z m 632.0857,641.977 c 2.66449,-2.7253 9.28181,-17.6878 9.28181,-20.9873 0,-0.7203 2.70578,-6.875 6.01284,-13.677 4.1423,-8.5199 6.7088,-12.6471 8.25,-13.2667 1.23044,-0.4947 7.29908,-1.3697 13.48588,-1.9444 6.18679,-0.5748 13.83679,-1.7481 17,-2.6076 3.1632,-0.8594 7.55128,-2.0573 9.75128,-2.6621 10.1978,-2.8033 25.13602,-8.1231 30.78089,-10.9616 11.86812,-5.968 30.04029,-22.8208 33.81931,-31.3639 4.5281,-10.2365 2.99178,-27.152 -3.29608,-36.2911 -7.88228,-11.4565 -12.15221,-14.8151 -31.29184,-24.6133 -7.14325,-3.6569 -13.63075,-7.2919 -14.41667,-8.0778 -2.02348,-2.0235 -1.77762,-6.1831 0.84812,-14.3492 l 2.27706,-7.0817 -2.12616,-3.4402 c -2.25296,-3.6454 -7.34398,-6.6556 -11.24576,-6.6494 -3.20954,0.01 -8.37641,3.3116 -10.46755,6.6986 -6.32827,10.2497 -11.84763,17.4506 -20.2959,26.4793 -15.74494,16.8268 -16.7256,18.8083 -10.93867,22.1025 l 3.13411,1.7841 -0.63006,6.7792 c -0.34654,3.7286 -1.48009,9.2258 -2.51901,12.216 -5.5247,15.9009 -9.63728,26.7786 -12.64146,33.4366 -12.08996,26.7943 -29.47669,77.4556 -29.48781,85.9213 -0.004,3.3886 2.95317,5.5787 7.53381,5.5787 3.38463,0 4.81498,-0.6021 7.18186,-3.023 z m 32.47538,-71.7667 c -1.63407,-1.1233 -0.43384,-3.9417 17.34067,-40.7199 6.65748,-13.7754 9.09528,-17.8159 12.82082,-21.25 3.56817,-3.2891 5.37893,-4.2404 8.07097,-4.2404 4.80521,0 18.52524,4.4777 22.97724,7.4989 2.02705,1.3756 4.11097,2.5011 4.63092,2.5011 0.51996,0 2.5411,2.4033 4.49142,5.3407 2.951,4.4445 3.55713,6.2695 3.61215,10.8753 0.0735,6.1516 -0.81754,8.3002 -6.05253,14.5952 -8.31772,10.0018 -18.57579,15.3935 -41.57581,21.8524 -12.53486,3.52 -24.08935,5.0773 -26.31585,3.5467 z m 184.145292,72.851 c 4.15169,-1.5785 6.37164,-4.8723 10.7423,-15.9385 9.81169,-24.8425 15.31927,-32.1095 29.41883,-38.817 7.9226,-3.769 8.13686,-3.8091 22.145479,-4.1473 11.888001,-0.2871 14.5496706,-0.077 16.6781806,1.3179 1.88759,1.2368 4.27033,1.5785 9.35452,1.3416 6.78864,-0.3165 6.8205704,-0.3056 6.56448,2.2374 -0.14154,1.4055 -1.86658,6.3555 -3.83343,11 -1.96684,4.6445 -4.91542,11.8196 -6.55239002,15.9446 -1.63696998,4.125 -3.63944998,9.0093 -4.44994998,10.8539 -4.55552,10.3681 -2.20623,15.9387 6.23394,14.7818 7.91247,-1.0845 10.4202704,-3.8904 16.3904104,-18.3388 2.90827,-7.0383 6.68162,-16.1719 8.38523,-20.2969 5.1182,-12.3929 7.91843,-16.4668 12.2695,-17.8505 7.12235,-2.265 29.670127,-6.1934 30.542327,-5.3212 0.4839,0.4839 -0.4358,4.9937 -2.093897,10.2673 -7.67667,24.4157 -10.46375,36.9079 -9.05878,40.6033 0.71288,1.875 1.61958,2.3011 4.89675,2.3011 3.17613,0 4.82013,-0.7212 7.818127,-3.4297 2.088,-1.8864 4.3209,-4.4739 4.9621,-5.75 3.2223,-6.4138 9.5246,-22.5818 12.79331,-32.8203 2.0192,-6.325 4.7105,-14.425 5.9806,-18 4.4793,-12.6081 4.76,-13.7223 4.1097,-16.3132 -0.5058,-2.0156 -1.6076,-2.8713 -4.8055,-3.7324 -5.1799,-1.3948 -9.89901,-0.5497 -15.21111,2.7239 -5.617,3.4616 -6.8075,5.1022 -5.4893,7.5651 1.2321,2.3023 0.3278,8.3554 -1.4086,9.4286 -2.6797,1.6562 -21.697807,-0.3371 -27.219207,-2.8528 -3.33746,-1.5207 -3.62495,-4.0338 -1.39062,-12.1565 1.08365,-3.9395 2.68936,-9.8627 3.56824,-13.1627 0.87887,-3.3 2.66039,-8.4185 3.95892,-11.3744 1.29853,-2.956 2.36097,-6.7278 2.36097,-8.382 0,-3.4633 -3.29101,-9.2938 -6.09193,-10.7928 -3.14672,-1.6841 -10.74324,-1.4099 -12.81208,0.4623 -1.94838,1.7633 -4.76877,10.1568 -7.58965,22.5869 -3.88546,17.1211 -8.98244,29.4502 -12.79237,30.9434 -1.21768,0.4773 -5.9328304,2.0729 -10.4781004,3.5458 l -8.26412,2.6781 -8.7296796,-3.7495 c -6.45529,-2.7726 -10.555041,-3.8657 -15.73588,-4.1956 -6.75241,-0.43 -7.33053,-0.2791 -15.96059,4.1658 -12.19812,6.2827 -12.72623,6.2097 -10.0456,-1.388 2.1368,-6.0563 1.87749,-8.5497 -1.25,-12.0189 -3.87928,-4.3032 -9.41175,-5.1039 -12.90998,-1.8683 -3.66228,3.3872 -5.62485,8.3779 -13.52271,34.3872 -3.84124,12.65 -7.66488,23.7583 -8.49697,24.6851 -2.1942,2.444 -9.830632,5.8149 -13.173082,5.8149 -3.68873,0 -7.45149,-3.7343 -9.01247,-8.9444 -1.06657,-3.56 -0.91111,-4.8693 1.39309,-11.7334 2.54076,-7.5688 2.55818,-7.8049 0.8544,-11.5833 -2.36591,-5.2466 -6.8059,-8.2623 -11.87526,-8.0658 -6.70994,0.2601 -30.5191,10.3929 -41.18135,17.5262 -4.89674,3.276 -9.32566,5.117 -9.32566,3.8764 0,-1.7575 17.13903,-18.0708 21.75171,-20.7037 2.61156,-1.4907 5.42329,-3.2509 6.24829,-3.9115 0.825,-0.6606 4.36874,-2.4712 7.87497,-4.0235 l 6.37497,-2.8223 5.24052,2.8348 c 5.31042,2.8726 9.08259,2.9797 12.25394,0.3477 4.01041,-3.3284 -1.0502,-16.2811 -7.57283,-19.3827 -4.65322,-2.2127 -12.30377,-2.8485 -16.84004,-1.3995 -7.28803,2.328 -23.56959,11.0208 -31.68456,16.9164 -12.38142,8.9953 -30.75733,28.9779 -35.87018,39.0064 -3.60734,7.0756 -1.32148,18.0948 4.38745,21.1501 6.0478,3.2367 25.71116,-4.3991 44.62606,-17.3295 2.62154,-1.7921 7.15299,-4.3651 10.06989,-5.7177 4.89076,-2.2678 5.51109,-2.3429 7.97164,-0.9644 1.6904,0.9471 4.02606,4.2793 6.37362,9.0932 5.4641,11.2047 13.05207,16.8305 22.7004,16.8305 3.08106,0 8.07319,-2.2 13.004372,-5.7309 l 3.570944,-4.4044 -1.852414,5.6569 c -2.632744,8.0398 -1.85585,10.9378 0.29364,13.6615 1.1646,1.4756 3.12098,2.8769 4.34753,3.1138 1.22654,0.2369 2.53828,0.492 2.91497,0.5669 0.3767,0.075 1.79598,-0.2862 3.15397,-0.8025 z m 396.507938,-8.9861 c 6.707,-2.6622 23.1703,-14.3301 29.2541,-20.733 5.873,-6.1809 10.3445,-12.2301 9.5947,-12.9799 -0.3208,-0.3208 -3.196,1.4444 -6.3894,3.9227 -7.0082,5.4388 -11.7388,7.872 -23.7757,12.2292 -18.0978,6.5511 -25.6452,6.536 -31.4392,-0.063 -2.4787,-2.8232 -3.0913,-4.4155 -3.0913,-8.0357 0,-2.4832 0.6553,-5.7821 1.4562,-7.3309 1.3511,-2.6128 1.9827,-2.8515 8.75,-3.3078 7.8122,-0.5268 14.091,-3.0419 24.9059,-9.9769 7.4336,-4.7667 10.4058,-10.4932 9.5832,-18.4638 -1.0393,-10.0689 -5.4305,-13.4348 -16.8291,-12.8992 -5.1908,0.2439 -8.236,1.0984 -14,3.9287 -14.8279,7.2808 -23.471,16.463 -30.2477,32.1343 -2.569,5.9407 -3.0176,8.216 -2.9647,15.0351 0.075,9.635 2.2429,15.3232 7.9603,20.8845 6.911,6.7224 12.8444,8.7036 24.3859,8.1426 4.5113,-0.2193 9.6307,-1.2103 12.8468,-2.487 z m -12.8468,-52.4009 c 0,-2.7284 7.1006,-7.6743 11.0176,-7.6743 3.0455,0 2.06,1.9381 -2.9238,5.75 -4.3925,3.3595 -8.0938,4.2395 -8.0938,1.9243 z m -83.3378,50.3366 c 14.0744,-7.033 29.2129,-25.3054 43.6342,-52.6669 l 7.2036,-13.6675 4.8407,-1.2067 c 8.7931,-2.1919 11.8113,-8.2033 7.2649,-14.4698 -1.3966,-1.925 -3.3213,-4.5741 -4.2772,-5.887 -1.658,-2.2773 -1.6357,-2.9895 0.4861,-15.5 2.6452,-15.5964 2.8772,-32.1221 0.6313,-44.9619 -2.055,-11.7479 -4.6016,-18.1835 -9.4068,-23.7715 -7.0247,-8.1692 -13.6662,-9.4883 -18.55,-3.6842 -4.0435,4.8055 -3.313,8.0719 4.4296,19.8046 5.729,8.6815 7.0633,12.4828 8.2742,23.573 1.7449,15.9798 -1.3448,36.4699 -6.7325,44.6491 -2.944,4.4693 -5.7289,5.9816 -14.9603,8.124 -6.7022,1.5554 -10.13767,2.6497 -36.7256,6.2314 -6.62354,0.8923 -27.93635,1.5401 -27.51434,2.1784 0.4089,0.4088 44.96694,-1.4426 53.64534,-2.444 7.3207,-0.8448 6.2072,0.4671 -5.1613,6.0808 -15.6494,7.7275 -24.7878,17.0223 -30.0493,30.5633 -2.7135,6.9833 -2.8982,8.2918 -2.4855,17.6053 0.517,11.669 2.4218,16.6675 7.6886,20.1755 4.7935,3.1928 10.3791,2.9645 17.7643,-0.7259 z m -4.6622,-26.5441 c 0,-4.0019 4.4016,-11.5526 9.6676,-16.5842 5.383,-5.1435 12.1276,-9.8826 14.0645,-9.8826 5.2934,0 -7.0438,18.8669 -17.1014,26.1526 -4.8749,3.5313 -6.6307,3.6145 -6.6307,0.3142 z m -50.73214,-47.0925 c -0.26101,-0.076 -4.27207,-1.5408 -9.19836,-4.2798 -10.55443,-5.8683 -16.86,-12.1545 -21.9853,-21.0945 -4.0815,-7.1194 -5.3584,-10.9896 -7.0611,-21.4017 -1.4396,-8.8034 -3.0912,-11.9282 -7.3802,-13.9635 -4.3059,-2.0433 -5.5879,-2.0407 -10.7414,0.021 -3.1808,1.2727 -4.569501,2.604 -5.998301,5.75 -3.5227,7.7566 -1.8494,11.212 7.961401,16.4411 3.2956,1.7565 7.1912,4.647 8.657,6.4233 11.4562,13.8831 27.0625,27.3679 36.7787,31.779 3.7307,1.6937 16.78092,3.6034 16.78092,2.585 z m 657.73214,279.8229 c -3.575,-0.1665 -6.8469,-0.6485 -7.271,-1.071 -1.1403,-1.1362 3.3154,-7.2395 7.1927,-9.8524 7.3716,-4.9677 19.9761,-1.5398 25.4896,6.9322 3.3413,5.1341 2.3763,5.2857 -25.4113,3.9912 z m 347.50006,-43.0119 c -3.0972,-0.6486 -7.3798,-4.0522 -8.9715,-7.1301 -2.7635,-5.3442 1.6265,-13.2245 8.9715,-16.1041 1.65,-0.6469 12.675,-1.6387 24.5,-2.2039 20.9395,-1.0009 21.7186,-0.968 29.8847,1.2585 6.898,1.8807 9.1587,3.0277 12.75,6.4688 2.4009,2.3005 4.3653,4.9055 4.3653,5.789 0,3.4428 -2.0811,6.759 -5.7097,9.0985 -3.7645,2.4272 -3.9946,2.4465 -33.7903,2.8429 -16.5,0.2196 -30.9,0.2107 -32,-0.02 z"
           style="fill:#b3081b;fill-opacity:1" />
      </g>
    </g>
  </g>
</svg>
